<?xml version="1.0" encoding="utf-8"?>
<!-- Generator: Adobe Illustrator 25.3.1, SVG Export Plug-In . SVG Version: 6.00 Build 0)  -->
<svg version="1.1" id="Layer_1" xmlns="http://www.w3.org/2000/svg" xmlns:xlink="http://www.w3.org/1999/xlink" x="0px" y="0px"
	 viewBox="0 0 341 53" style="enable-background:new 0 0 341 53;" xml:space="preserve">
<style type="text/css">
	.st0{enable-background:new    ;}
	.st1{fill:#FD74AA;}
	.st2{fill:#5AA681;}
</style>
<g transform="translate(-395 -224)">
	<g class="st0">
		<path class="st1" d="M421.9,237.7v-8.9h-7.6v27.6h4.8v4.6h-15v-4.6h4.7v-27.6h-7.5v8.9h-4.5v-13.5h29.8v13.5H421.9z"/>
		<path class="st1" d="M447.1,234.7c4.8,0,7.2,2.6,7.2,7.7v14.1h4.3v4.5h-9.4v-16.8c0-1.8-0.3-3.1-0.8-3.9c-0.5-0.7-1.3-1.1-2.5-1.1
			c-1.9,0-4.3,1.1-7.3,3.3v14h4.4v4.5H429v-4.5h4.6v-27.9H429v-4.4h9.6v14.1C441.6,235.9,444.4,234.7,447.1,234.7z"/>
		<path class="st1" d="M488.5,249.5h-21.5c0.3,2.5,1.3,4.4,2.9,5.8c1.6,1.4,3.5,2.1,5.9,2.1c1.7,0,3.3-0.3,4.7-1
			c1.4-0.7,2.7-1.8,3.6-3.2l4.4,2c-1.4,2.2-3.2,3.8-5.5,4.9c-2.3,1.1-4.7,1.7-7.4,1.7c-2.8,0-5.2-0.6-7.4-1.7s-3.8-2.8-5-4.8
			c-1.2-2.1-1.8-4.4-1.8-7c0-2.6,0.6-4.9,1.8-7c1.2-2.1,2.8-3.7,4.8-4.8c2.1-1.2,4.3-1.7,6.8-1.7c2.7,0,5.1,0.6,7.1,1.8
			c2,1.2,3.6,2.9,4.7,5.1C487.7,243.8,488.4,246.4,488.5,249.5z M474.9,238.9c-1.9,0-3.6,0.6-5,1.9c-1.4,1.3-2.4,3-2.8,5.1h16.1
			c-0.5-2.1-1.5-3.8-3-5.1C478.6,239.5,476.9,238.9,474.9,238.9z"/>
		<path class="st1" d="M639.5,233.7c0,1.7-0.4,3.2-1.1,4.6c-0.8,1.3-1.9,2.3-3.3,3c2.1,0.7,3.7,1.9,4.7,3.4c1.1,1.6,1.6,3.4,1.6,5.5
			c0,3.5-1.3,6.2-3.8,8c-2.6,1.8-6.4,2.7-11.5,2.7h-12.7v-4.6h4.5v-27.6h-4.5v-4.6h12.9c4.5,0,7.8,0.8,10,2.3
			C638.4,228.1,639.5,230.5,639.5,233.7z M634,234c0-1.7-0.6-3-1.8-3.9c-1.2-0.9-2.9-1.3-5.2-1.3h-3.6v10.7h3.7
			C631.7,239.5,634,237.7,634,234z M635.8,250.2c0-2-0.7-3.6-2.2-4.6c-1.4-1-3.7-1.5-6.7-1.5h-3.5v12.3h2.2c2.2,0,4-0.1,5.4-0.4
			c1.4-0.3,2.6-0.9,3.5-1.8C635.3,253.3,635.8,252,635.8,250.2z"/>
		<path class="st1" d="M672,248.2c0,2.5-0.6,4.8-1.8,6.8c-1.2,2.1-2.8,3.7-4.9,4.9s-4.3,1.8-6.8,1.8c-2.6,0-4.9-0.6-7-1.8
			c-2.1-1.2-3.7-2.8-4.8-4.9c-1.1-2.1-1.7-4.3-1.7-6.8c0-2.6,0.6-4.9,1.7-7c1.1-2.1,2.7-3.7,4.8-4.8c2.1-1.2,4.4-1.7,7-1.7
			c2.5,0,4.8,0.6,6.9,1.8c2.1,1.2,3.7,2.9,4.8,4.9C671.4,243.5,672,245.8,672,248.2z M658.5,256.8c1.5,0,2.9-0.4,4.1-1.2
			c1.3-0.8,2.2-1.8,2.9-3.1c0.7-1.3,1-2.8,1-4.3c0-1.5-0.4-3-1-4.3c-0.7-1.3-1.7-2.4-2.9-3.2c-1.3-0.8-2.6-1.2-4.2-1.2
			c-1.5,0-2.9,0.4-4.1,1.2c-1.3,0.8-2.2,1.9-3,3.2c-0.7,1.3-1.1,2.8-1.1,4.3c0,1.5,0.4,3,1.1,4.3c0.7,1.3,1.7,2.4,3,3.2
			S657,256.8,658.5,256.8z"/>
		<path class="st1" d="M702.7,248.2c0,2.5-0.6,4.8-1.8,6.8c-1.2,2.1-2.8,3.7-4.9,4.9s-4.3,1.8-6.8,1.8c-2.6,0-4.9-0.6-7-1.8
			c-2.1-1.2-3.7-2.8-4.8-4.9c-1.1-2.1-1.7-4.3-1.7-6.8c0-2.6,0.6-4.9,1.7-7c1.1-2.1,2.7-3.7,4.8-4.8c2.1-1.2,4.4-1.7,7-1.7
			c2.5,0,4.8,0.6,6.9,1.8c2.1,1.2,3.7,2.9,4.8,4.9C702.2,243.5,702.7,245.8,702.7,248.2z M689.3,256.8c1.5,0,2.9-0.4,4.1-1.2
			c1.3-0.8,2.2-1.8,2.9-3.1c0.7-1.3,1-2.8,1-4.3c0-1.5-0.4-3-1-4.3c-0.7-1.3-1.7-2.4-2.9-3.2c-1.3-0.8-2.6-1.2-4.2-1.2
			c-1.5,0-2.9,0.4-4.1,1.2c-1.3,0.8-2.2,1.9-3,3.2c-0.7,1.3-1.1,2.8-1.1,4.3c0,1.5,0.4,3,1.1,4.3c0.7,1.3,1.7,2.4,3,3.2
			S687.8,256.8,689.3,256.8z"/>
		<path class="st1" d="M724.5,239.5h-4.1v-4.2h14.2v4.2h-4l-9.6,8l9.1,9h4.5v4.5H728l-12.8-12.9v8.4h4.3v4.5h-14v-4.5h4.6v-27.9
			h-4.6v-4.4h9.6v23.2L724.5,239.5z"/>
	</g>
	<g class="st0">
		<path class="st2" d="M520.2,233.7c0,1.7-0.4,3.2-1.1,4.6c-0.8,1.3-1.9,2.3-3.3,3c2.1,0.7,3.7,1.9,4.7,3.4c1.1,1.6,1.6,3.4,1.6,5.5
			c0,3.5-1.3,6.2-3.8,8c-2.6,1.8-6.4,2.7-11.5,2.7H494v-4.6h4.5v-27.6H494v-4.6h12.9c4.5,0,7.8,0.8,10,2.3
			C519.1,228.1,520.2,230.5,520.2,233.7z M514.7,234c0-1.7-0.6-3-1.8-3.9c-1.2-0.9-2.9-1.3-5.2-1.3h-3.6v10.7h3.7
			C512.4,239.5,514.7,237.7,514.7,234z M516.5,250.2c0-2-0.7-3.6-2.2-4.6c-1.4-1-3.7-1.5-6.7-1.5h-3.5v12.3h2.2c2.2,0,4-0.1,5.4-0.4
			c1.4-0.3,2.6-0.9,3.5-1.8C516,253.3,516.5,252,516.5,250.2z"/>
		<path class="st2" d="M547.6,244.4v12.1h4.3v4.5h-8.7v-3.1c-2.4,2.4-5.2,3.6-8.2,3.6c-1.6,0-3-0.4-4.3-1.1
			c-1.3-0.7-2.4-1.7-3.2-2.9c-0.8-1.2-1.2-2.6-1.2-4.1c0-1.6,0.4-3,1.3-4.3c0.9-1.3,2-2.2,3.5-2.9c1.5-0.7,3-1,4.5-1
			c2.5,0,4.8,0.7,7,2.2v-2.8c0-2-0.4-3.4-1.3-4.3c-0.8-0.9-2.2-1.3-4.2-1.3c-1.4,0-2.5,0.2-3.4,0.7c-0.9,0.5-1.7,1.2-2.3,2.3
			l-4.8-1.2c1.1-2,2.6-3.6,4.4-4.6s4.1-1.5,6.6-1.5c3.4,0,5.9,0.8,7.5,2.3C546.8,238.6,547.6,241,547.6,244.4z M535.7,257.6
			c2.5,0,4.8-1,7-3.1v-3c-2.2-1.7-4.4-2.6-6.6-2.6c-1.3,0-2.5,0.4-3.5,1.3c-1,0.8-1.5,1.9-1.5,3.2c0,1.2,0.4,2.2,1.3,3
			C533.2,257.2,534.3,257.6,535.7,257.6z"/>
		<path class="st2" d="M564.1,250.7v5.8h5.6v4.5h-15.7v-4.5h5.2v-16.7h-5.2v-4.5h9.2v5.8c1-2.3,2.3-3.9,3.8-4.8
			c1.5-0.9,3.7-1.4,6.5-1.4h1.1v5.1h-1.1c-2.7,0-4.8,0.4-6.1,1.1c-1.3,0.7-2.2,1.8-2.6,3.2C564.3,245.9,564.1,248,564.1,250.7z"/>
		<path class="st2" d="M593.9,239.5h-4.1v-4.2H604v4.2h-4l-9.6,8l9.1,9h4.5v4.5h-6.7l-12.8-12.9v8.4h4.3v4.5h-14v-4.5h4.6v-27.9
			h-4.6v-4.4h9.6v23.2L593.9,239.5z"/>
	</g>
</g>
</svg>
